<svg xmlns="http://www.w3.org/2000/svg" viewBox="0 0 64 64" role="img" aria-label="MeetRead logo mark">
  <defs>
    <linearGradient id="bg" x1="0" y1="0" x2="1" y2="1">
      <stop offset="0" stop-color="#0b66c2" />
      <stop offset="1" stop-color="#0d47a1" />
    </linearGradient>
    <linearGradient id="bookPage" x1="0" y1="0" x2="1" y2="1">
      <stop offset="0" stop-color="#ffffff" stop-opacity="0.95" />
      <stop offset="1" stop-color="#dce8ff" stop-opacity="0.98" />
    </linearGradient>
  </defs>
  <rect width="64" height="64" rx="14" fill="url(#bg)" />
  <g transform="translate(12 16)">
    <path d="M20 7c-6 0-11 3-11 10v14l11-3 11 3V17c0-7-5-10-11-10z" fill="url(#bookPage)" stroke="#0b3c88" stroke-width="1.6" />
    <path d="M20 28c-6.5-3-10-3-16 0" fill="none" stroke="#0b3c88" stroke-width="1.4" stroke-linecap="round" />
    <path d="M20 28c6.5-3 10-3 16 0" fill="none" stroke="#0b3c88" stroke-width="1.4" stroke-linecap="round" />
    <path d="M20 28v-21" fill="none" stroke="#0d47a1" stroke-width="2" />
    <path d="M4 24c4-2 8-1 12 0" fill="none" stroke="#fe4a49" stroke-width="1.4" stroke-linecap="round" opacity="0.8" />
    <path d="M36 24c-4-2-8-1-12 0" fill="none" stroke="#ff8855" stroke-width="1.4" stroke-linecap="round" opacity="0.8" />
    <path d="M23 5.5 28.5 2l3.5 6z" fill="#fe4a49" />
    <path d="M23 5.5 17.5 2l-3.5 6z" fill="#071c50" />
    <path d="M30 8.2c2 0 3.4 1.4 3.4 3.3s-1.4 3.3-3.4 3.3-3.4-1.5-3.4-3.3S28 8.2 30 8.2z" fill="#ffffff" stroke="#071c50" stroke-width="1.4" />
    <path d="M28.6 10.7h2.8v1.2h-2.8z" fill="#ff365b" />
    <circle cx="9" cy="8" r="2" fill="#ff365b" />
    <circle cx="35" cy="6" r="1.6" fill="#ffffff" stroke="#071c50" stroke-width="1.1" />
    <path d="M33.5 3.5 32 1.8" fill="none" stroke="#ffffff" stroke-width="1.2" stroke-linecap="round" />
    <path d="M33.5 3.5 35 1.8" fill="none" stroke="#ffffff" stroke-width="1.2" stroke-linecap="round" />
  </g>
  <g transform="translate(11 40) scale(0.75)">
    <path d="M8 7c0 3.9 2.3 6.5 6.4 6.5 2.1 0 3.7-.6 5-1.7v-4H15v2.4h2.8v.8c-.5.3-1.4.5-2.4.5-2.5 0-4-1.5-4-4.5S13 3 15.4 3c1.2 0 2.2.3 3 .7l1.5-2.7C18.5.4 17 .1 15.3.1 10.3.1 8 3.4 8 7zm18.3 6.3c3.8 0 6.1-2.6 6.1-6.3S30 4.7 26.3 4.7s-6.1 2.6-6.1 6.3 2.3 6.3 6.1 6.3zm0-3c-1.7 0-2.7-1.4-2.7-3.3s1-3.3 2.7-3.3c1.6 0 2.7 1.4 2.7 3.3s-1 3.3-2.7 3.3zm13.2 2.7c3 0 4.7-1.4 4.7-3.5 0-1.6-.9-2.7-2.7-3.1l-.6-.1c-1-.2-1.3-.4-1.3-.7 0-.4.4-.6 1.1-.6.7 0 1.6.2 2.3.6l1.2-2.5C43.4 6.5 42 6 40.5 6c-2.9 0-4.6 1.4-4.6 3.5 0 1.5 1 2.7 2.9 3.1l.6.2c.9.2 1.2.4 1.2.7 0 .4-.4.6-1.1.6-.8 0-1.8-.2-2.7-.7l-1.2 2.5c1.1.6 2.4 1 3.9 1z" fill="#ffffff" />
  </g>
</svg>
